<?xml version="1.0" encoding="UTF-8"?>
<svg id="Capa_2" data-name="Capa 2" xmlns="http://www.w3.org/2000/svg" xmlns:xlink="http://www.w3.org/1999/xlink" viewBox="0 0 475.03 414.12">
  <defs>
    <style>
      .cls-1 {
        fill: url(#Degradado_sin_nombre_41);
      }

      .cls-2 {
        fill: url(#Degradado_sin_nombre_32);
      }

      .cls-3 {
        fill: #a10000;
      }

      .cls-4 {
        fill: url(#Degradado_sin_nombre_37);
      }
    </style>
    <linearGradient id="Degradado_sin_nombre_41" data-name="Degradado sin nombre 41" x1="250.39" y1="68.34" x2="253.09" y2="-39.94" gradientUnits="userSpaceOnUse">
      <stop offset="0" stop-color="#a10000"/>
      <stop offset=".12" stop-color="#9b0000"/>
      <stop offset=".29" stop-color="#8a0000"/>
      <stop offset=".48" stop-color="#6e0000"/>
      <stop offset=".69" stop-color="#470000"/>
      <stop offset=".91" stop-color="#160000"/>
      <stop offset="1" stop-color="#000"/>
    </linearGradient>
    <linearGradient id="Degradado_sin_nombre_32" data-name="Degradado sin nombre 32" x1="235.71" y1="322.57" x2="242.65" y2="44.4" gradientUnits="userSpaceOnUse">
      <stop offset="0" stop-color="#a10000"/>
      <stop offset=".1" stop-color="#8b0000"/>
      <stop offset=".41" stop-color="#4f0000"/>
      <stop offset=".68" stop-color="#240000"/>
      <stop offset=".88" stop-color="#090000"/>
      <stop offset="1" stop-color="#000"/>
    </linearGradient>
    <linearGradient id="Degradado_sin_nombre_37" data-name="Degradado sin nombre 37" x1="264.87" y1="171.91" x2="376.72" y2="171.91" gradientUnits="userSpaceOnUse">
      <stop offset="0" stop-color="#000"/>
      <stop offset=".15" stop-color="#200000"/>
      <stop offset=".57" stop-color="#750000"/>
      <stop offset=".86" stop-color="#a00"/>
      <stop offset="1" stop-color="#bf0000"/>
    </linearGradient>
  </defs>
  <g id="Capa_1-2" data-name="Capa 1">
    <g>
      <g>
        <path d="m238.23,280.68c-1.85.4,4.71,0,4.73,0,18.32-9.11,37.81-28.36,64.02-51.47v-22.89c-10.41-.67-19.93-3.23-31.1-12.03-23.82-18.8-24.04-48.39-23.85-51.1l-.37-5.96,95.94.58,27.9,35.68c19.86-13.24,30.69-22.45,30.69-22.45,30.86-26.32,47.06-34.6,61.73-33.52,2.59.2,4.96.69,7.11,1.31-.46-3.02-1.52-6.26-3.63-9.22-6.7-9.35-21.13-12.28-34.28-6.96l-5.69,2.3-3.37-5.09c-6.74-10.15-33.32-8.61-71.06,4.07,0,0-46.65,14.25-62.41,29.93-.91-2.96-12.11-14.98-12.11-14.98-12.54-12.8-31.1-18.67-71.8-31.5-4.46-1.41-14.04-4.43-14.04-4.43,0,0-.04.04,0,0l-56.56-18.78-22.78-7.93C75.31,41.99,22.68,0,22.68,0c0,0-3.04,19.86,32.27,47.6,0,0,30.26,20.81,52.33,29.63-12.23,1.83-28.31,2.96-46.92.9C33.9,75.19,13.49,66.28,0,59.62c0,0,0,0,0,0,25.06,41.14,100.3,47.01,100.3,47.01l-1.6,1.61c-5.8,5.83-13.04,10.02-21,12.06-7.25,1.86-17.11,3.67-28.79,4-5.57.15-11.56-.04-17.87-.7,4.96,2.63,10.74,5.35,17.35,8,15.84,6.33,36.54,12.2,62.86,15.39,2.17.26,4.39.52,6.63.74,7.2.72,14.82,1.26,22.84,1.52l12.56.83-11.03,8.48c-1.93,1.4-5.84,3.46-8.02,4.41-4.35,1.89-12.3,4.91-22.99,7.13-1.48.31-3,.59-4.57.87-6.46,1.11-13.76,1.87-21.74,1.93,5.96,2.48,13.45,5.09,22.76,7.57.28.07.57.15.85.22,1,.26,2.02.52,3.07.78,14.87,3.69,34.06,7,58.67,9.07.43.04,1.7.11,3.63.32.83.09,1.78.2,2.85.33,12.19,1.56,32.6,6.59,45.75,22.09,1.92,2.27,3.46,4.65,4.65,7.16,3.62,7.57,3.41,14.72,3.23,19.03-.24,6.05-1.53,10.55-1.85,11.64-3.02,10.2-9.08,17.09-13,20.81,0,0,0,0,0,0,0-.01,1.35.62,4.02,1.89"/>
        <g>
          <path class="cls-1" d="m264.64,48.22c11.87,0,38.87,4.44,48.02,5.74,2.28.31,4.54.48,6.78.48,21.5,0,40.8-14.33,46.65-35.58C351.37,11.86,304.34.27,265.41.27c-55.08,0-97.17,13.4-129,48.24,10.04,3.98,32.15,11.63,57.27,19.86,19.48-14.41,41.84-20.14,70.96-20.14Z"/>
          <path class="cls-2" d="m373.33,310.72c1.48-.49,2.89-.98,4.21-1.45l-.81-114.79-35.43-45.29h-75.59s-.01,0-.01,0c0,0,0,0,0,0h-.82c0,25.09,20.34,45.43,45.43,45.43h10.31v41.91s2.16,39.28-55.33,43.38c-11.33-.1-22.04-1.47-31.96-4.07-.39-.09-.78-.19-1.17-.3-.02.02-.04,0-.06-.02-.87-.24-1.74-.48-2.61-.74-.87-.26-1.74-.54-2.59-.82-.83-.26-1.65-.54-2.44-.83-.74-.24-1.5-.52-2.28-.81-.15-.06-.3-.11-.44-.17-.69-.26-1.35-.54-2.04-.81-.31-.13-.63-.26-.94-.39-1.02-.41-2.02-.85-3-1.32-1.31-.59-2.59-1.2-3.8-1.81-.74-.37-1.48-.76-2.2-1.17-24.04-12.93-41.17-35.02-48.71-64.75-28.82-1.33-54.23-6.93-63.58-9.2,4.48,37.49,19.67,69.75,43.02,92.01,29.72,28.6,70.21,42.02,123.22,42.16h0c.19.01.37,0,.56,0,.08,0,.17,0,.25,0,39.41,0,87.48-8.99,108.82-16.15Z"/>
          <path class="cls-4" d="m376.72,194.49l-56.12.14h-10.31c-25.09,0-45.43-20.34-45.43-45.43h0s76.43,0,76.43,0"/>
        </g>
      </g>
      <g>
        <g>
          <path d="m316.77,405.91h9.52v-24.99c0-1.22.03-2.51.1-3.84l-5.61,4.66c-.36.3-.73.51-1.09.63s-.71.19-1.05.19c-.59,0-1.12-.13-1.58-.39-.46-.26-.81-.54-1.04-.83l-3.33-4.42,15.43-12.95h8.7v41.95h8.16v7.61h-28.22v-7.61Z"/>
          <path d="m385.71,388.74c0,4.33-.46,8.08-1.39,11.25-.93,3.17-2.22,5.8-3.86,7.89-1.64,2.09-3.59,3.64-5.85,4.66-2.26,1.02-4.7,1.53-7.33,1.53s-5.06-.51-7.29-1.53c-2.23-1.02-4.16-2.57-5.8-4.66-1.63-2.09-2.91-4.71-3.82-7.89-.92-3.17-1.38-6.92-1.38-11.25s.46-8.08,1.38-11.25c.92-3.17,2.19-5.8,3.82-7.89,1.63-2.08,3.56-3.63,5.8-4.64,2.23-1.01,4.66-1.51,7.29-1.51s5.07.51,7.33,1.51c2.25,1.01,4.2,2.56,5.85,4.64,1.64,2.09,2.93,4.71,3.86,7.89.93,3.17,1.39,6.93,1.39,11.25Zm-10.88,0c0-3.42-.22-6.23-.65-8.41-.43-2.19-1-3.9-1.72-5.15-.71-1.25-1.52-2.1-2.43-2.57s-1.82-.7-2.75-.7-1.84.23-2.74.7-1.69,1.32-2.38,2.57c-.69,1.25-1.25,2.96-1.67,5.15-.42,2.19-.63,4.99-.63,8.41s.21,6.26.63,8.43c.42,2.18.97,3.89,1.67,5.15.69,1.26,1.48,2.12,2.38,2.58s1.81.7,2.74.7,1.85-.23,2.75-.7,1.72-1.33,2.43-2.58c.71-1.26,1.29-2.98,1.72-5.15.43-2.18.65-4.99.65-8.43Z"/>
          <path d="m420.25,394.28h5.1v5.91c0,.52-.18.97-.53,1.36-.35.39-.86.58-1.51.58h-3.06v11.39h-9.18v-11.39h-19.92c-.66,0-1.25-.2-1.79-.61-.53-.41-.87-.92-1-1.53l-1.09-5.2,22.91-30.8h10.06v30.29Zm-9.18-12.92c0-.79.03-1.65.09-2.57.06-.92.14-1.86.25-2.84l-13.09,18.32h12.75v-12.92Z"/>
          <path d="m428.6,408.04c0-.84.16-1.62.47-2.34s.74-1.35,1.29-1.89c.55-.53,1.19-.96,1.94-1.27s1.56-.47,2.44-.47,1.66.16,2.41.47,1.4.74,1.96,1.27c.56.54,1,1.16,1.31,1.89.31.72.47,1.5.47,2.34s-.16,1.62-.47,2.36c-.31.73-.75,1.37-1.31,1.9-.56.54-1.21.95-1.96,1.26-.74.3-1.55.45-2.41.45s-1.7-.15-2.44-.45c-.74-.3-1.39-.72-1.94-1.26-.55-.53-.98-1.17-1.29-1.9-.31-.73-.47-1.52-.47-2.36Z"/>
          <path d="m449.94,407.34h7.72v-20.28c0-.99.03-2.03.08-3.12l-4.55,3.78c-.29.24-.59.41-.88.51-.29.1-.58.15-.86.15-.48,0-.91-.11-1.28-.32-.38-.21-.66-.44-.84-.68l-2.7-3.59,12.53-10.51h7.06v34.04h6.62v6.18h-22.9v-6.18Z"/>
        </g>
        <g>
          <path class="cls-3" d="m98.8,413.58h-8.91c-1,0-1.82-.23-2.46-.7s-1.09-1.06-1.34-1.79l-2.92-8.64h-18.83l-2.92,8.64c-.23.64-.67,1.21-1.33,1.72s-1.46.76-2.41.76h-8.97l19.17-49.53h11.76l19.17,49.53Zm-31.82-18.94h13.53l-4.56-13.56c-.3-.86-.64-1.88-1.04-3.04-.4-1.17-.79-2.43-1.17-3.79-.36,1.38-.74,2.66-1.12,3.84-.39,1.18-.75,2.2-1.09,3.06l-4.56,13.5Z"/>
          <path class="cls-3" d="m91.93,364.04h9.25c1,0,1.81.23,2.45.68.63.45,1.09,1.06,1.36,1.8l9.59,26.52c.43,1.16.87,2.41,1.31,3.77.44,1.36.86,2.79,1.24,4.28.32-1.5.69-2.93,1.1-4.28.42-1.36.83-2.62,1.24-3.77l9.52-26.52c.23-.64.67-1.21,1.33-1.72.66-.51,1.46-.76,2.41-.76h9.31l-19.85,49.53h-10.4l-19.85-49.53Z"/>
          <path class="cls-3" d="m158.7,413.58h-11.56v-49.53h11.56v49.53Z"/>
          <path class="cls-3" d="m179.37,404.4h18.36v9.18h-29.85v-49.53h11.49v40.35Z"/>
          <path class="cls-3" d="m249.27,413.58h-8.91c-1,0-1.82-.23-2.46-.7s-1.09-1.06-1.34-1.79l-2.92-8.64h-18.83l-2.92,8.64c-.23.64-.67,1.21-1.33,1.72s-1.46.76-2.41.76h-8.97l19.17-49.53h11.76l19.17,49.53Zm-10.68-61.12l-10.03,7.28c-.59.45-1.14.75-1.65.9-.51.15-1.15.22-1.92.22h-8.36l6.15-6.7c.29-.34.58-.62.87-.83s.58-.39.9-.53.67-.23,1.05-.27c.38-.05.84-.07,1.36-.07h11.63Zm-21.15,42.19h13.53l-4.56-13.56c-.3-.86-.64-1.88-1.04-3.04-.4-1.17-.79-2.43-1.17-3.79-.36,1.38-.74,2.66-1.12,3.84-.39,1.18-.75,2.2-1.09,3.06l-4.56,13.5Z"/>
          <path class="cls-3" d="m260.59,364.11c.34.05.65.13.92.26.27.12.53.3.78.53.25.23.53.53.85.92l23.53,29.75c-.09-.95-.16-1.88-.2-2.77s-.07-1.74-.07-2.53v-26.21h10.13v49.53h-5.98c-.88,0-1.63-.14-2.24-.41-.61-.27-1.2-.77-1.77-1.5l-23.36-29.51c.07.86.12,1.7.17,2.53s.07,1.6.07,2.33v26.55h-10.13v-49.53h6.05c.5,0,.92.02,1.26.07Z"/>
          <path class="cls-3" d="m45.72,411.38c-3.36,1.14-9.84,2.74-16.77,2.74-8.79,0-15.49-2.09-20.41-6.56-4.65-4.19-7.33-10.66-7.31-18.08.04-15.61,11.8-25.57,29.03-25.57,6.41,0,11.4,1.23,13.83,2.32h0c-1.06,3.64-4.8,5.99-8.76,5.46-1.52-.2-3.23-.32-5.2-.32-11.09,0-18.92,6.21-18.92,17.65s7.3,17.8,18.09,17.8h.06c3.92,0,7.13-3.04,7.13-6.75v-6.52h-1.7c-4.13,0-7.48-3.16-7.48-7.07h0s18.41,0,18.41,0v24.9Z"/>
        </g>
      </g>
    </g>
  </g>
</svg>