<?xml version="1.0" encoding="UTF-8"?>
<svg id="Capa_2" data-name="Capa 2" xmlns="http://www.w3.org/2000/svg" xmlns:xlink="http://www.w3.org/1999/xlink" viewBox="0 0 475.03 326.88">
  <defs>
    <style>
      .cls-1 {
        fill: url(#Degradado_sin_nombre_19);
      }

      .cls-2 {
        fill: url(#Degradado_sin_nombre_27);
      }

      .cls-3 {
        fill: url(#Degradado_sin_nombre_23);
      }
    </style>
    <linearGradient id="Degradado_sin_nombre_27" data-name="Degradado sin nombre 27" x1="250.39" y1="68.34" x2="253.09" y2="-39.94" gradientUnits="userSpaceOnUse">
      <stop offset="0" stop-color="#900"/>
      <stop offset=".13" stop-color="#930000"/>
      <stop offset=".3" stop-color="#820000"/>
      <stop offset=".5" stop-color="#600"/>
      <stop offset=".71" stop-color="#3f0000"/>
      <stop offset=".94" stop-color="#0e0000"/>
      <stop offset="1" stop-color="#000"/>
    </linearGradient>
    <linearGradient id="Degradado_sin_nombre_23" data-name="Degradado sin nombre 23" x1="235.71" y1="322.57" x2="242.65" y2="44.4" gradientUnits="userSpaceOnUse">
      <stop offset="0" stop-color="#900"/>
      <stop offset=".07" stop-color="#8b0000"/>
      <stop offset=".39" stop-color="#4f0000"/>
      <stop offset=".66" stop-color="#240000"/>
      <stop offset=".87" stop-color="#090000"/>
      <stop offset="1" stop-color="#000"/>
    </linearGradient>
    <linearGradient id="Degradado_sin_nombre_19" data-name="Degradado sin nombre 19" x1="264.87" y1="171.91" x2="376.72" y2="171.91" gradientUnits="userSpaceOnUse">
      <stop offset="0" stop-color="#000"/>
      <stop offset=".47" stop-color="#4f0000"/>
      <stop offset=".83" stop-color="#840000"/>
      <stop offset="1" stop-color="#900"/>
    </linearGradient>
  </defs>
  <g id="Capa_1-2" data-name="Capa 1">
    <g>
      <path d="m238.23,280.68c-1.85.4,4.71,0,4.73,0,18.32-9.11,37.81-28.36,64.02-51.47v-22.89c-10.41-.67-19.93-3.23-31.1-12.03-23.82-18.8-24.04-48.39-23.85-51.1l-.37-5.96,95.94.58,27.9,35.68c19.86-13.24,30.69-22.45,30.69-22.45,30.86-26.32,47.06-34.6,61.73-33.52,2.59.2,4.96.69,7.11,1.31-.46-3.02-1.52-6.26-3.63-9.22-6.7-9.35-21.13-12.28-34.28-6.96l-5.69,2.3-3.37-5.09c-6.74-10.15-33.32-8.61-71.06,4.07,0,0-46.65,14.25-62.41,29.93-.91-2.96-12.11-14.98-12.11-14.98-12.54-12.8-31.1-18.67-71.8-31.5-4.46-1.41-14.04-4.43-14.04-4.43,0,0-.04.04,0,0l-56.56-18.78-22.78-7.93C75.31,41.99,22.68,0,22.68,0c0,0-3.04,19.86,32.27,47.6,0,0,30.26,20.81,52.33,29.63-12.23,1.83-28.31,2.96-46.92.9C33.9,75.19,13.49,66.28,0,59.62c0,0,0,0,0,0,25.06,41.14,100.3,47.01,100.3,47.01l-1.6,1.61c-5.8,5.83-13.04,10.02-21,12.06-7.25,1.86-17.11,3.67-28.79,4-5.57.15-11.56-.04-17.87-.7,4.96,2.63,10.74,5.35,17.35,8,15.84,6.33,36.54,12.2,62.86,15.39,2.17.26,4.39.52,6.63.74,7.2.72,14.82,1.26,22.84,1.52l12.56.83-11.03,8.48c-1.93,1.4-5.84,3.46-8.02,4.41-4.35,1.89-12.3,4.91-22.99,7.13-1.48.31-3,.59-4.57.87-6.46,1.11-13.76,1.87-21.74,1.93,5.96,2.48,13.45,5.09,22.76,7.57.28.07.57.15.85.22,1,.26,2.02.52,3.07.78,14.87,3.69,34.06,7,58.67,9.07.43.04,1.7.11,3.63.32.83.09,1.78.2,2.85.33,12.19,1.56,32.6,6.59,45.75,22.09,1.92,2.27,3.46,4.65,4.65,7.16,3.62,7.57,3.41,14.72,3.23,19.03-.24,6.05-1.53,10.55-1.85,11.64-3.02,10.2-9.08,17.09-13,20.81,0,0,0,0,0,0,0-.01,1.35.62,4.02,1.89"/>
      <g>
        <path class="cls-2" d="m264.64,48.22c11.87,0,38.87,4.44,48.02,5.74,2.28.31,4.54.48,6.78.48,21.5,0,40.8-14.33,46.65-35.58C351.37,11.86,304.34.27,265.41.27c-55.08,0-97.17,13.4-129,48.24,10.04,3.98,32.15,11.63,57.27,19.86,19.48-14.41,41.84-20.14,70.96-20.14Z"/>
        <path class="cls-3" d="m373.33,310.72c1.48-.49,2.89-.98,4.21-1.45l-.81-114.79-35.43-45.29h-75.59s-.01,0-.01,0c0,0,0,0,0,0h-.82c0,25.09,20.34,45.43,45.43,45.43h10.31v41.91s2.16,39.28-55.33,43.38c-11.33-.1-22.04-1.47-31.96-4.07-.39-.09-.78-.19-1.17-.3-.02.02-.04,0-.06-.02-.87-.24-1.74-.48-2.61-.74-.87-.26-1.74-.54-2.59-.82-.83-.26-1.65-.54-2.44-.83-.74-.24-1.5-.52-2.28-.81-.15-.06-.3-.11-.44-.17-.69-.26-1.35-.54-2.04-.81-.31-.13-.63-.26-.94-.39-1.02-.41-2.02-.85-3-1.32-1.31-.59-2.59-1.2-3.8-1.81-.74-.37-1.48-.76-2.2-1.17-24.04-12.93-41.17-35.02-48.71-64.75-28.82-1.33-54.23-6.93-63.58-9.2,4.48,37.49,19.67,69.75,43.02,92.01,29.72,28.6,70.21,42.02,123.22,42.16h0c.19.01.37,0,.56,0,.08,0,.17,0,.25,0,39.41,0,87.48-8.99,108.82-16.15Z"/>
        <path class="cls-1" d="m376.72,194.49l-56.12.14h-10.31c-25.09,0-45.43-20.34-45.43-45.43h0s76.43,0,76.43,0"/>
      </g>
    </g>
  </g>
</svg>