<?xml version="1.0" encoding="UTF-8"?>
<svg id="Capa_2" data-name="Capa 2" xmlns="http://www.w3.org/2000/svg" viewBox="0 0 1013.62 132.54">
  <defs>
    <style>
      .cls-1 {
        fill: #900;
      }
    </style>
  </defs>
  <g id="Capa_1-2" data-name="Capa 1">
    <g>
      <g>
        <path d="m678.19,114.89h20.46v-53.7c0-2.63.07-5.38.22-8.26l-12.05,10.01c-.78.64-1.56,1.09-2.34,1.35s-1.54.4-2.26.4c-1.27,0-2.4-.28-3.4-.84-1-.56-1.74-1.16-2.23-1.79l-7.16-9.5,33.17-27.84h18.71v90.16h17.54v16.37h-60.64v-16.37Z"/>
        <path d="m826.37,77.99c0,9.3-1,17.36-3,24.18-2,6.82-4.76,12.47-8.29,16.95-3.53,4.48-7.72,7.82-12.57,10.01-4.85,2.19-10.1,3.29-15.75,3.29s-10.87-1.1-15.67-3.29c-4.8-2.19-8.95-5.53-12.46-10.01-3.51-4.48-6.25-10.13-8.22-16.95-1.97-6.82-2.96-14.88-2.96-24.18s.99-17.36,2.96-24.19c1.97-6.82,4.71-12.47,8.22-16.95,3.51-4.48,7.66-7.8,12.46-9.97,4.8-2.16,10.02-3.25,15.67-3.25s10.9,1.09,15.75,3.25c4.85,2.17,9.03,5.5,12.57,9.97,3.53,4.48,6.29,10.13,8.29,16.95,2,6.82,3,14.88,3,24.19Zm-23.38,0c0-7.36-.46-13.38-1.39-18.09-.93-4.7-2.16-8.39-3.69-11.07-1.53-2.68-3.28-4.52-5.22-5.52s-3.92-1.5-5.92-1.5-3.96.5-5.88,1.5-3.63,2.84-5.11,5.52c-1.49,2.68-2.68,6.37-3.58,11.07-.9,4.7-1.35,10.73-1.35,18.09s.45,13.45,1.35,18.12c.9,4.67,2.09,8.37,3.58,11.07,1.48,2.7,3.19,4.56,5.11,5.55s3.88,1.5,5.88,1.5,3.97-.5,5.92-1.5c1.95-1,3.69-2.85,5.22-5.55,1.54-2.7,2.76-6.39,3.69-11.07.92-4.67,1.39-10.71,1.39-18.12Z"/>
        <path d="m900.6,89.9h10.96v12.71c0,1.12-.38,2.09-1.13,2.92-.76.83-1.84,1.24-3.25,1.24h-6.58v24.48h-19.73v-24.48h-42.82c-1.41,0-2.69-.44-3.84-1.32-1.14-.88-1.86-1.97-2.15-3.29l-2.34-11.18,49.25-66.2h21.63v65.1Zm-19.73-27.77c0-1.7.06-3.54.18-5.52.12-1.97.3-4.01.55-6.1l-28.13,39.38h27.4v-27.77Z"/>
        <path d="m918.54,119.47c0-1.8.34-3.48,1.01-5.03s1.6-2.9,2.78-4.05c1.17-1.15,2.56-2.06,4.16-2.74,1.6-.67,3.35-1.01,5.25-1.01s3.58.34,5.18,1.01,3,1.59,4.2,2.74c1.2,1.15,2.14,2.5,2.82,4.05.67,1.55,1.01,3.22,1.01,5.03s-.34,3.49-1.01,5.07c-.68,1.57-1.61,2.94-2.82,4.09-1.2,1.15-2.6,2.05-4.2,2.7-1.6.65-3.33.98-5.18.98s-3.65-.32-5.25-.98c-1.6-.65-2.99-1.55-4.16-2.7-1.18-1.15-2.1-2.51-2.78-4.09-.67-1.58-1.01-3.27-1.01-5.07Z"/>
        <path d="m964.4,117.97h16.6v-43.58c0-2.14.06-4.37.18-6.7l-9.79,8.12c-.63.51-1.27.88-1.9,1.1-.63.22-1.24.33-1.84.33-1.03,0-1.95-.23-2.76-.68-.81-.46-1.42-.94-1.81-1.45l-5.81-7.71,26.92-22.59h15.18v73.17h14.23v13.28h-49.21v-13.28Z"/>
      </g>
      <g>
        <path class="cls-1" d="m209.72,131.37h-19.14c-2.14,0-3.91-.5-5.3-1.5s-2.35-2.28-2.89-3.84l-6.28-18.56h-40.48l-6.28,18.56c-.49,1.37-1.44,2.6-2.85,3.69-1.41,1.1-3.14,1.64-5.19,1.64h-19.29l41.21-106.46h25.28l41.21,106.46Zm-68.39-40.7h29.08l-9.79-29.15c-.63-1.85-1.38-4.03-2.23-6.54-.85-2.51-1.69-5.22-2.52-8.15-.78,2.97-1.58,5.72-2.41,8.25-.83,2.53-1.61,4.73-2.34,6.58l-9.79,29.01Z"/>
        <path class="cls-1" d="m194.96,24.92h19.87c2.14,0,3.9.49,5.26,1.46,1.36.98,2.34,2.27,2.92,3.88l20.6,56.99c.93,2.48,1.86,5.19,2.81,8.11.95,2.92,1.84,5.99,2.67,9.21.68-3.22,1.47-6.29,2.37-9.21.9-2.92,1.79-5.63,2.67-8.11l20.46-56.99c.49-1.37,1.44-2.6,2.85-3.69,1.41-1.1,3.14-1.64,5.19-1.64h20.02l-42.67,106.46h-22.36l-42.67-106.46Z"/>
        <path class="cls-1" d="m338.46,131.37h-24.84V24.92h24.84v106.46Z"/>
        <path class="cls-1" d="m382.88,111.64h39.45v19.73h-64.15V24.92h24.7v86.73Z"/>
        <path class="cls-1" d="m533.11,131.37h-19.14c-2.14,0-3.91-.5-5.3-1.5s-2.35-2.28-2.89-3.84l-6.28-18.56h-40.48l-6.28,18.56c-.49,1.37-1.44,2.6-2.85,3.69-1.41,1.1-3.14,1.64-5.19,1.64h-19.29l41.21-106.46h25.28l41.21,106.46ZM510.17,0l-21.55,15.64c-1.27.97-2.45,1.62-3.54,1.94-1.1.32-2.47.47-4.13.47h-17.98l13.23-14.39c.63-.73,1.25-1.33,1.86-1.79s1.25-.84,1.94-1.13,1.44-.49,2.27-.58c.83-.1,1.8-.15,2.92-.15h24.99Zm-45.45,90.67h29.08l-9.79-29.15c-.63-1.85-1.38-4.03-2.23-6.54-.85-2.51-1.69-5.22-2.52-8.15-.78,2.97-1.58,5.72-2.41,8.25-.83,2.53-1.61,4.73-2.34,6.58l-9.79,29.01Z"/>
        <path class="cls-1" d="m557.44,25.06c.73.1,1.39.28,1.97.55.59.27,1.15.64,1.68,1.13.54.49,1.14,1.15,1.83,1.97l50.56,63.93c-.2-2.05-.34-4.03-.44-5.96-.1-1.92-.15-3.74-.15-5.45V24.92h21.77v106.46h-12.86c-1.9,0-3.51-.29-4.82-.88-1.32-.59-2.58-1.66-3.8-3.22l-50.2-63.42c.15,1.85.27,3.66.36,5.44.1,1.78.15,3.45.15,5.01v57.06h-21.77V24.92h13.01c1.07,0,1.97.05,2.7.14Z"/>
        <path class="cls-1" d="m95.63,126.65c-7.23,2.45-21.14,5.89-36.05,5.89-18.89,0-33.3-4.49-43.87-14.1C5.72,109.43-.05,95.54,0,79.58.09,46.02,25.35,24.62,62.4,24.62c13.77,0,24.51,2.64,29.72,4.98h0c-2.28,7.82-10.33,12.88-18.82,11.74-3.26-.44-6.94-.69-11.17-.69-23.83,0-40.67,13.36-40.67,37.94s15.68,38.26,38.87,38.26h.13c8.43-.01,15.33-6.54,15.33-14.51v-14.01h-3.65c-8.87,0-16.07-6.8-16.07-15.18h0s39.56,0,39.56,0v53.51Z"/>
      </g>
    </g>
  </g>
</svg>